# xmcd
#
# Track frame offsets:
#	150
#	8457
#	20084
#	28336
#	41397
#	53600
#	64772
#	76778
#	88966
#
# Disc length: 1346 seconds
#
# Revision: 1
# Processed by: cddbd v1.5.2PL0 Copyright (c) Steve Scherf et al.
# Submitted via: audiograbber 1.83.01
#
DISCID=64054009
DTITLE=Kitty Wells - The Original Queen Of Country Music
DYEAR=1900
DGENRE=
TTITLE0=Thou Shalt Not Steal
TTITLE1=I Don't Claim To Be An Angel
TTITLE2=After Dark
TTITLE3=One By One
TTITLE4=Makin' Believe
TTITLE5=Poison In Your Heart
TTITLE6=I've Kissed You My Last Time
TTITLE7=On The Lonely Side Of Town
TTITLE8=You And Me (And The Power In Your Heart)
EXTD=
EXTT0=
EXTT1=
EXTT2=
EXTT3=
EXTT4=
EXTT5=
EXTT6=
EXTT7=
EXTT8=
PLAYORDER=
